<svg width="20" height="21" viewBox="0 0 20 21" fill="none" xmlns="http://www.w3.org/2000/svg">
<path d="M1.71835 10.3134C1.6489 10.1263 1.6489 9.92047 1.71835 9.73337C2.39476 8.09325 3.54294 6.6909 5.01732 5.70412C6.4917 4.71734 8.22588 4.19055 10 4.19055C11.7741 4.19055 13.5083 4.71734 14.9827 5.70412C16.4571 6.6909 17.6053 8.09325 18.2817 9.73337C18.3511 9.92047 18.3511 10.1263 18.2817 10.3134C17.6053 11.9535 16.4571 13.3558 14.9827 14.3426C13.5083 15.3294 11.7741 15.8562 10 15.8562C8.22588 15.8562 6.4917 15.3294 5.01732 14.3426C3.54294 13.3558 2.39476 11.9535 1.71835 10.3134Z" stroke="#667181" stroke-width="2" stroke-linecap="round" stroke-linejoin="round"/>
<path d="M10 12.5233C11.3807 12.5233 12.5 11.404 12.5 10.0233C12.5 8.64256 11.3807 7.52327 10 7.52327C8.61929 7.52327 7.5 8.64256 7.5 10.0233C7.5 11.404 8.61929 12.5233 10 12.5233Z" stroke="#667181" stroke-width="2" stroke-linecap="round" stroke-linejoin="round"/>
</svg>
