<svg width="120" height="34" viewBox="0 0 120 34" fill="none" xmlns="http://www.w3.org/2000/svg">
<path d="M101.306 26.5378V8.39893H106.647V11.2429L109.803 8.39893H116.15L120 12.2833V26.5378H114.659V13.2198L113.341 11.8672H110.601L106.647 15.5088V26.5378H101.306Z" fill="#667181"/>
<path d="M84.0255 26.5378L80.1757 22.688V18.8036L84.0255 14.9539H92.7307V13.5666L91.3434 12.1793H82.4648V8.43359H94.2221L98.0718 12.2833V26.5378H92.7307V23.9713L90.1989 26.5378H84.0255ZM86.8694 23.1389H89.4359L92.7307 19.8441V18.1793H86.8694L85.4821 19.5319L85.5168 21.7863L86.8694 23.1389Z" fill="#667181"/>
<path d="M62.9441 33.0234V29.1043H73.1754L74.5626 27.717V23.8672L71.58 26.5378H65.5106L61.6608 22.688V8.43359H67.0019V21.6822L68.3545 23.0695H70.817L74.5626 19.6013V8.43359H79.6956V29.1389L75.8459 33.0234H62.9441Z" fill="#667181"/>
<path d="M42.7226 33.0234V29.1043H52.9539L54.3412 27.717V23.8672L51.3585 26.5378H45.2891L41.4394 22.688V8.43359H46.7805V21.6822L48.1331 23.0695H50.5955L54.3412 19.6013V8.43359H59.4742V29.1389L55.6245 33.0234H42.7226Z" fill="#667181"/>
<path d="M25.1902 26.5378L21.3405 22.688V18.8036L25.1902 14.9539H33.8955V13.5666L32.5082 12.1793H23.6295V8.43359H35.3868L39.2365 12.2833V26.5378H33.8955V23.9713L31.3636 26.5378H25.1902ZM28.0341 23.1389H30.6006L33.8955 19.8441V18.1793H28.0341L26.6468 19.5319L26.6815 21.7863L28.0341 23.1389Z" fill="#667181"/>
<path d="M0 26.5377V0.976807H16.162L20.0117 4.82654V13.6359L16.7862 16.8266L20.9134 26.5377H15.1909L11.5145 17.4856H5.41044V26.5377H0ZM5.41044 13.1156H13.318L14.7053 11.763L14.6706 6.69939L13.318 5.34678H5.41044V13.1156Z" fill="#667181"/>
</svg>
